<svg xmlns="http://www.w3.org/2000/svg" version="1.1" xmlns:xlink="http://www.w3.org/1999/xlink" width="512" height="512" x="0" y="0" viewBox="0 0 1707 1707" style="enable-background:new 0 0 512 512" xml:space="preserve" fill-rule="evenodd" class=""><g><path d="M644 1390v-136h937c9 0 16-4 20-12l103-193c4-7 4-15-1-22-4-7-11-11-19-11h-103V267c0-69-56-126-125-126H474c-69 0-125 57-125 126v304H104C46 571 0 617 0 674v788c0 57 46 103 104 103h436c58 0 104-46 104-103zm-238 76c0-12-10-22-23-22H259c-13 0-23 10-23 22 0 13 10 23 23 23h124c13 0 23-10 23-23zm193-234v136H45V768h554v271zm0-509H45v-49c0-32 27-58 59-58h75l46 63c4 6 11 9 19 9h157c7 0 14-3 18-9l46-63h75c33 0 59 26 59 58zM409 616l-20 27H255l-20-27h137zm1159 593H644v-148h136v74c0 13 10 23 23 23h324c13 0 23-10 23-23v-74h496zM452 369v202h-57V267c0-44 35-80 79-80h982c44 0 80 36 80 80v749h-58V369c0-69-56-125-125-125H577c-69 0-125 56-125 125zm350 647H644V674c0-7-1-14-2-21-2-8-5-16-8-24-17-34-52-58-94-58h-43V369c0-44 36-80 80-80h776c44 0 80 36 80 80v647H803zm303 96H825v-51h280zM45 1413h554v49c0 32-26 58-59 58H104c-32 0-59-26-59-58z" fill="#000000" opacity="1" data-original="#000000" class=""></path></g></svg>