<svg xmlns="http://www.w3.org/2000/svg" version="1.1" xmlns:xlink="http://www.w3.org/1999/xlink" width="512" height="512" x="0" y="0" viewBox="0 0 480 480" style="enable-background:new 0 0 512 512" xml:space="preserve" class=""><g><path d="m367.84 74.473 15.215-4.953 15.625 48.003-15.215 4.95zM344.39 130.48l15.215-4.953 15.63 47.996-15.215 4.957zm0 0" fill="#000000" opacity="1" data-original="#000000" class=""></path><path d="M74.625 153.816a43.592 43.592 0 0 0 9.824 34.032L96 202.336V336h16V214.953l11.559 7.703a8.007 8.007 0 0 0 8.882 0L152 209.602l19.559 13.039a8.007 8.007 0 0 0 8.882 0L200 209.6l19.559 13.04a8.007 8.007 0 0 0 8.882 0L248 209.6l19.559 13.04a8.007 8.007 0 0 0 8.882 0L296 209.6l16 10.665V464H136v16h224c22.082-.027 39.973-17.918 40-40V200a7.933 7.933 0 0 0-1.719-4.84l46.23-123.078a53.882 53.882 0 0 0-6.093-49.602A51.116 51.116 0 0 0 395.93 0c-21.696.203-41.02 13.758-48.594 34.09l-12.543 33.39L320 52.687V24a8 8 0 0 0-8-8h-88a8 8 0 0 0-8 8v13.727c-9.043-8.196-22.684-8.66-32.266-1.094V24c0-13.094-10.613-23.71-23.71-23.71-13.094 0-23.712 10.616-23.712 23.71v12.64a24.339 24.339 0 0 0-15.578-5.6 24.373 24.373 0 0 0-17.535 7.386c-9.488 9.777-9.547 25.308-.136 35.16l7.449 7.687a24.5 24.5 0 0 0-7.262 5.094l-.05.031-.079.082a24.639 24.639 0 0 0-4.562 6.528l-9.118-16.84-14.074 7.617 20.688 38.184c-.926.527-1.856 1.039-2.735 1.64-.328.223-.617.48-.937.704L61.426 95.785l-10.848 11.766 30.75 28.351a43.65 43.65 0 0 0-6.703 17.914zm168.934 39.528L224 206.398l-19.559-13.039a8.007 8.007 0 0 0-8.882 0l-19.375 12.922c-.047-.8-.184-1.496-.184-2.265-.05-17.582 12.64-32.618 29.98-35.516 17.344-2.902 34.235 7.184 39.907 23.828a8.083 8.083 0 0 0-2.328 1.016zm20.441 7.71-.152-.1A51.929 51.929 0 0 0 192 156v-52.001h72zM384 440c0 13.254-10.746 24-24 24h-32V220.281l16-10.68 19.559 13.04a8.007 8.007 0 0 0 8.882 0L384 214.953zM362.312 39.71A36.31 36.31 0 0 1 395.93 16a35.32 35.32 0 0 1 29.336 15.55 37.9 37.9 0 0 1 4.27 34.907L380 198.398l-12 8-19.559-13.039a8.007 8.007 0 0 0-8.882 0L320 206.4l-16.23-10.82zm-33.695 44.22L286.16 196.945l-6.16 4.11V99.312l32-32zM232 32h72v16h-72zm-4.688 32h65.375l-24 24h-65.375zM114.618 49.648a8.523 8.523 0 0 1 6.117-2.593 8.54 8.54 0 0 1 6.121 2.593l11.747 12a8.001 8.001 0 0 0 8.757 1.797A8.005 8.005 0 0 0 152.312 56V24a7.72 7.72 0 1 1 15.422 0v32a7.995 7.995 0 0 0 4.977 7.395 8 8 0 0 0 8.73-1.793l11.782-12a8.66 8.66 0 0 1 12.16 0 9.154 9.154 0 0 1 0 12.796l-23.567 24 .239.243-3.711 3.71a7.944 7.944 0 0 0-1.543 2.282c-.113.246-.176.496-.266.75a8.004 8.004 0 0 0-.43 2.113c0 .176-.097.32-.097.496v70.567a51.249 51.249 0 0 0-5.055 5.601L155.84 140a43.19 43.19 0 0 0-27.68-22.398 42.171 42.171 0 0 0-8.55-1.297l-2.051-2.403c-1.598-1.832-2.805-3.261-3-3.46a9.264 9.264 0 0 1-2.399-8.137 8.875 8.875 0 0 1 2.215-4.465l.145-.137.199-.215a8.576 8.576 0 0 1 10.761-1.008 8 8 0 0 0 10.223-12.183L114.56 62.473a9.24 9.24 0 0 1 .058-12.825zM90.48 156a27.526 27.526 0 0 1 11.81-19.098 27.007 27.007 0 0 1 21.894-3.773 26.99 26.99 0 0 1 17.304 13.934l20.39 43.433a51.229 51.229 0 0 0-1.19 5.688l-4.215-2.817a8 8 0 0 0-8.88 0L128 206.398l-17.742-11.84-1.715-2.148 20.625-15.945-9.793-12.656-20.797 16.086-1.777-2.215A27.708 27.708 0 0 1 90.48 156zm0 0" fill="#000000" opacity="1" data-original="#000000" class=""></path><path d="M17.082 460.047A35.898 35.898 0 0 0 49.367 480a36.345 36.345 0 0 0 16.145-3.809L72 472.945l6.496 3.246A36.312 36.312 0 0 0 94.633 480a35.904 35.904 0 0 0 32.289-19.953l2.789-5.598A136.103 136.103 0 0 0 144 393.945c-.027-23.156-18.79-41.918-41.945-41.945A41.62 41.62 0 0 0 80 358.398V352c0-17.672-14.328-32-32-32v16c8.836 0 16 7.164 16 16v6.398A41.62 41.62 0 0 0 41.945 352C18.79 352.027.027 370.79 0 393.945a136.064 136.064 0 0 0 14.29 60.52zM41.945 368a25.769 25.769 0 0 1 18.344 7.602l6.055 6.054a8.004 8.004 0 0 0 11.312 0l6.055-6.054A25.944 25.944 0 0 1 128 393.946a119.836 119.836 0 0 1-12.603 53.367l-2.789 5.601A20.002 20.002 0 0 1 94.633 464a20.213 20.213 0 0 1-8.985-2.121l-10.07-5.04a8 8 0 0 0-7.152 0l-10.067 5.04A20.234 20.234 0 0 1 49.367 464a20 20 0 0 1-17.976-11.113l-2.79-5.598A119.842 119.842 0 0 1 16 393.945c.02-14.32 11.625-25.925 25.945-25.945zm0 0" fill="#000000" opacity="1" data-original="#000000" class=""></path></g></svg>