<svg xmlns="http://www.w3.org/2000/svg" version="1.1" xmlns:xlink="http://www.w3.org/1999/xlink" width="512" height="512" x="0" y="0" viewBox="0 0 512 512" style="enable-background:new 0 0 512 512" xml:space="preserve" class=""><g><path d="M119.02 280.226a5.34 5.34 0 0 0 .031-7.544c-23.103-23.319-39.971-52.387-48.778-84.059L24.354 22.345c-1.344-4.89 1.531-9.963 6.494-11.33 4.534-1.335 9.798 1.409 11.171 6.434l46.023 166.228c7.52 27.165 21.655 52.332 40.883 72.787a5.325 5.325 0 0 0 7.536.232 5.335 5.335 0 0 0 .234-7.539c-18.046-19.197-31.316-42.823-38.372-68.324L52.305 14.624C49.347 3.777 37.963-2.19 27.932.755 17.381 3.664 11.162 14.619 14.073 25.18l45.919 166.291c9.296 33.43 27.097 64.11 51.486 88.721a5.335 5.335 0 0 0 7.542.034zM484.078.758c-10.519-2.929-21.468 3.27-24.378 13.848l-46.023 166.228c-7.062 25.527-20.348 49.153-38.419 68.318a5.33 5.33 0 0 0 .224 7.539 5.33 5.33 0 0 0 7.536-.221c19.259-20.426 33.414-45.596 40.94-72.792L469.98 17.444c1.313-4.778 6.291-7.789 11.254-6.408 4.88 1.346 7.755 6.419 6.411 11.307l-45.919 166.281c-8.734 31.636-25.597 60.722-48.778 84.112a5.335 5.335 0 0 0 .031 7.544 5.334 5.334 0 0 0 7.541-.034c24.467-24.688 42.268-55.387 51.486-88.783L497.925 25.18c2.913-10.561-3.306-21.516-13.847-24.422z" fill="#000000" opacity="1" data-original="#000000" class=""></path><path d="M256.01 213.355h-.02c-82.518 0-148.98 67.359-148.98 149.318 0 82.415 66.934 149.318 148.98 149.318h.012c.005 0 .009.003.014.003.006 0 .01-.003.016-.003 82.071-.011 148.959-66.934 148.959-149.317-.001-82.063-66.56-149.319-148.981-149.319zm73.529 140.27-15.165-36.689 59.049-3.024zm-27.932 67.557 3.019 59.168-39.606-43.975zm.874-11.91-46.471 19.296-46.476-19.296-19.254-46.598 19.254-46.598 46.476-19.293 46.471 19.293 19.259 46.598zM265.02 288.973l39.606-43.977-3.019 59.168zm-54.626 15.198-3.02-59.175 39.612 43.983zm-12.752 12.766-15.166 36.702-43.899-39.727zm-15.167 54.771 15.166 36.702-59.065 3.025zm64.511 64.662-39.612 43.981 3.02-59.174zm67.388-27.959 15.165-36.689 43.884 39.714zm72.034-91.849c4.532 12.842 7.221 26.543 7.76 40.792h-52.832zm-215.744 40.791h-52.832c.54-14.249 3.228-27.95 7.76-40.792zm-.029 10.666-45.043 40.766a138.113 138.113 0 0 1-7.76-40.766zm141.961 58.933 37.304 37.393c-10.123 9.403-21.632 17.323-34.204 23.38zm28.769-58.933h52.803c-.542 14.239-3.23 27.931-7.76 40.766zm-21.316-62.052 37.355-37.443c9.393 10.16 17.303 21.713 23.349 34.335zm-7.45-7.632 3.097-60.713c12.56 6.051 24.059 13.961 34.175 23.352zm-51.25-21.247v-52.931a137.178 137.178 0 0 1 40.661 7.785zm-10.666.035-40.692-45.18a137.148 137.148 0 0 1 40.692-7.786zm-51.277 21.302L162.101 261c10.122-9.402 21.631-17.322 34.203-23.379zm-7.546 7.537-60.613-3.104c6.04-12.61 13.941-24.154 23.322-34.306zm-.025 113.424-37.293 37.382c-9.37-10.146-17.261-21.681-23.295-34.279zm7.572 7.512-3.103 60.827c-12.583-6.062-24.102-13.991-34.231-23.405zm51.276 21.328v52.964a137.18 137.18 0 0 1-40.692-7.786zm51.326 45.178a137.172 137.172 0 0 1-40.661 7.785v-52.928zm18.101-74.021 60.643 3.106c-6.04 12.609-13.94 24.153-23.321 34.305z" fill="#000000" opacity="1" data-original="#000000" class=""></path></g></svg>