<svg xmlns="http://www.w3.org/2000/svg" version="1.1" xmlns:xlink="http://www.w3.org/1999/xlink" width="512" height="512" x="0" y="0" viewBox="0 0 60 60" style="enable-background:new 0 0 512 512" xml:space="preserve" class=""><g><path d="M54.2 29.02a68.27 68.27 0 0 0-2.088-.374c-4.7-.8-10.555-1.784-22.445-9.408a7.553 7.553 0 0 0-1.612-1.338l-3.706-3.942a3.029 3.029 0 0 0-2.668-.917 2.88 2.88 0 0 0-2.189 1.6 5.974 5.974 0 0 0 .335 6.27 6.97 6.97 0 0 1-5.692 3.222 6.982 6.982 0 0 1-5.66-3.647c-1.016-1.692-2.131-3.2-3.432-2.848-1.426.395-1.426 2.5-1.426 4.363a24.156 24.156 0 0 1-.927 7.618L.429 34.142a3.988 3.988 0 0 0 .56 4.419C2.5 40.243 5.731 42.378 12.617 43h30.747a19.731 19.731 0 0 0 5.973-.912C52.483 41.09 60 38.306 60 35c0-1.667-1.213-5.062-5.8-5.98zM21.29 15.516a.9.9 0 0 1 .693-.5 1.033 1.033 0 0 1 .909.31l1.681 1.787a5.892 5.892 0 0 0-3.442 2.087 4.051 4.051 0 0 1 .159-3.684zM5.617 22a18.146 18.146 0 0 1 .083-2.027 11.806 11.806 0 0 1 1.06 1.542 8.965 8.965 0 0 0 7.328 4.616h.186c2.908 0 5.585-1.62 7.558-4.579 1.072-1.608 2.194-2.451 3.337-2.5a3.822 3.822 0 0 1 2.664 1.176L26.2 22.4a1 1 0 0 0 1.6 1.2l1.619-2.157q1.056.665 2.054 1.264L30.2 24.4a1 1 0 1 0 1.6 1.2l1.409-1.873c.73.418 1.433.807 2.115 1.172L34.2 26.4a1 1 0 0 0 1.6 1.2l1.322-1.766c.769.386 1.505.736 2.212 1.058L38.2 28.4a1 1 0 1 0 1.6 1.2l1.422-1.891a44.638 44.638 0 0 0 10.554 2.908c.7.119 1.375.232 2.029.362a5.145 5.145 0 0 1 3.631 2.273c-3.679 2.147-9.461 3.989-17.161 1.786-11.546-3.3-15.218-2.574-19.871-1.657-1.095.217-2.227.44-3.544.628-4.772.684-10.194-1.681-12.66-2.938.083-.41 1.417-1.4 1.417-9.071zm43.114 18.182a17.714 17.714 0 0 1-5.367.818H12.708c-6.149-.559-8.958-2.364-10.23-3.78a1.971 1.971 0 0 1-.26-2.188l1.087-2.175c2.91 1.49 8.575 3.879 13.837 3.129 1.369-.2 2.528-.425 3.648-.645 4.562-.9 7.854-1.549 18.935 1.616a26.641 26.641 0 0 0 7.35 1.076 22.3 22.3 0 0 0 10.685-2.679c-.971 1.546-4.236 3.307-9.029 4.828z" fill="#000000" opacity="1" data-original="#000000" class=""></path></g></svg>